<svg xmlns="http://www.w3.org/2000/svg" width="180" height="180" viewBox="0 0 180 180">
  <g id="appiconfg" transform="translate(126.036 126.036)">
    <g id="Group_8" data-name="Group 8" transform="translate(-95.296 -93.401)">
      <path id="Path_15" data-name="Path 15" d="M60.278,114.922c-3.012,0-5.452-3.009-5.452-6.722,0-31.618,20.865-57.34,46.512-57.34s46.511,25.723,46.511,57.34c0,3.713-2.441,6.722-5.452,6.722s-5.453-3.011-5.453-6.722c0-24.2-15.974-43.9-35.606-43.9S65.731,84,65.731,108.2C65.731,111.91,63.289,114.922,60.278,114.922Z" transform="translate(-42.035 -50.86)" fill="#fff"/>
      <path id="Path_16" data-name="Path 16" d="M64.442,157.371H61.011a13.9,13.9,0,0,1-13.863-13.863V126.993A13.9,13.9,0,0,1,61.011,113.13h3.431a5.593,5.593,0,0,1,5.577,5.577V151.8A5.593,5.593,0,0,1,64.442,157.371Z" transform="translate(-45.067 -66.958)" fill="#fff"/>
      <path id="Path_17" data-name="Path 17" d="M63.881,159.051H60.45a16.125,16.125,0,0,1-16.105-16.106V126.427a16.122,16.122,0,0,1,16.105-16.1h3.431a7.826,7.826,0,0,1,7.819,7.818v33.09A7.828,7.828,0,0,1,63.881,159.051ZM60.45,114.8a11.638,11.638,0,0,0-11.624,11.622v16.518A11.638,11.638,0,0,0,60.45,154.569h3.431a3.34,3.34,0,0,0,3.336-3.336V118.141a3.34,3.34,0,0,0-3.336-3.336Z" transform="translate(-44.345 -66.469)" fill="#fff"/>
      <path id="Path_18" data-name="Path 18" d="M182.846,113.124h3.431a13.9,13.9,0,0,1,13.863,13.863V143.5a13.9,13.9,0,0,1-13.863,13.863h-3.431a5.594,5.594,0,0,1-5.578-5.577V118.7A5.594,5.594,0,0,1,182.846,113.124Z" transform="translate(-83.701 -66.956)" fill="#fff"/>
      <path id="Path_19" data-name="Path 19" d="M185.717,159.051h-3.431a7.826,7.826,0,0,1-7.816-7.818V118.141a7.826,7.826,0,0,1,7.816-7.818h3.431a16.122,16.122,0,0,1,16.1,16.1v16.518A16.124,16.124,0,0,1,185.717,159.051ZM182.287,114.8a3.341,3.341,0,0,0-3.337,3.336v33.09a3.341,3.341,0,0,0,3.337,3.336h3.431a11.637,11.637,0,0,0,11.622-11.624V126.425A11.634,11.634,0,0,0,185.717,114.8h-3.431Z" transform="translate(-83.306 -66.469)" fill="#fff"/>
      <path id="Path_20" data-name="Path 20" d="M102.915,188.65c-18.943,0-34.623-7.329-46.633-21.81a3.361,3.361,0,0,1,5.173-4.293c11.253,13.574,25.492,19.892,43.534,19.352a3.306,3.306,0,0,1,3.462,3.256,3.364,3.364,0,0,1-3.259,3.462Q104.048,188.65,102.915,188.65Z" transform="translate(-48.636 -80.1)" fill="#fff"/>
      <ellipse id="Ellipse_7" data-name="Ellipse 7" cx="7.06" cy="7.06" rx="7.06" ry="7.06" transform="translate(45.829 97.509)" fill="#fff"/>
      <path id="Path_21" data-name="Path 21" d="M114.884,199.3A10.419,10.419,0,1,1,125.3,188.878,10.43,10.43,0,0,1,114.884,199.3Zm0-14.118a3.7,3.7,0,1,0,3.7,3.7A3.7,3.7,0,0,0,114.884,185.178Z" transform="translate(-61.97 -84.566)" fill="#fff"/>
    </g>
    <g id="Ellipse_8" data-name="Ellipse 8" transform="translate(-126.036 -126.036)" fill="none" stroke="#fff" stroke-width="8">
      <circle cx="90" cy="90" r="90" stroke="none"/>
      <circle cx="90" cy="90" r="86" fill="none"/>
    </g>
  </g>
</svg>
