<svg xmlns="http://www.w3.org/2000/svg" width="225" height="225" viewBox="0 0 225 225">
  <g id="appicon" transform="translate(126.036 126.036)">
    <g id="Group_8" data-name="Group 8" transform="translate(-126.036 -126.036)">
      <path id="Path_23" data-name="Path 23" d="M112.5,0A112.5,112.5,0,1,1,0,112.5,112.5,112.5,0,0,1,112.5,0Z" fill="#b030f9"/>
      <g id="radio-waves-14690" transform="translate(0 76.509)">
        <g id="Group_9" data-name="Group 9">
          <path id="Path_22" data-name="Path 22" d="M202.074,165.617c-12.693,0-17.558-18.452-22.708-37.993-3.148-11.931-7.9-29.966-13.123-29.966s-9.975,18.034-13.123,29.966c-5.15,19.538-10.018,37.993-22.708,37.993s-17.56-18.454-22.71-38c-3.145-11.931-7.9-29.963-13.12-29.963s-9.975,18.034-13.123,29.966c-5.15,19.538-10.015,37.993-22.71,37.993s-17.56-18.454-22.71-37.993c-3.145-11.931-7.9-29.966-13.123-29.966S12.943,115.69,9.8,127.621a4.944,4.944,0,0,1-6.21,3.784A5.727,5.727,0,0,1,.21,124.448c5.15-19.538,10.015-37.993,22.71-37.993s17.56,18.454,22.71,38c3.145,11.931,7.9,29.963,13.12,29.963s9.975-18.032,13.12-29.963c5.15-19.538,10.018-38,22.71-38s17.56,18.454,22.71,37.993c3.148,11.931,7.9,29.966,13.123,29.966s9.973-18.032,13.12-29.963c5.15-19.541,10.018-38,22.71-38s17.56,18.454,22.71,38c3.148,11.931,7.9,29.963,13.12,29.963s9.973-18.023,13.118-29.952c1.78-6.756,11.373-3.582,9.593,3.173C219.632,147.168,214.77,165.617,202.074,165.617Z" transform="translate(-0.004 -86.455)" fill="#f68aff"/>
        </g>
      </g>
    </g>
  </g>
</svg>
