<svg xmlns="http://www.w3.org/2000/svg" xmlns:xlink="http://www.w3.org/1999/xlink" width="77" height="73" viewBox="0 0 77 73">
  <defs>
    <linearGradient id="linear-gradient" y1="0.5" x2="1" y2="0.5" gradientUnits="objectBoundingBox">
      <stop offset="0" stop-color="#f563fa"/>
      <stop offset="1" stop-color="#55014f"/>
    </linearGradient>
  </defs>
  <g id="RecordMicrophoneButton" transform="translate(-33 -822)">
    <g id="Ellipse_1" data-name="Ellipse 1" transform="translate(33 822)" stroke="#707070" stroke-width="1" fill="url(#linear-gradient)">
      <ellipse cx="38.5" cy="36.5" rx="38.5" ry="36.5" stroke="none"/>
      <ellipse cx="38.5" cy="36.5" rx="38" ry="36" fill="none"/>
    </g>
    <g id="radio-microphone-14658" transform="translate(151.765 963.466)">
      <g id="Group_5" data-name="Group 5" transform="translate(-100.879 -126.036)">
        <path id="Path_1" data-name="Path 1" d="M81.426,107.3a1.073,1.073,0,0,0-1.145.981v3.19c0,6.016-5.711,10.91-12.732,10.91s-12.732-4.894-12.732-10.91v-3.19a1.158,1.158,0,0,0-2.289,0v3.19c0,6.767,6.127,12.327,13.876,12.83v6.387H61.182a.993.993,0,1,0,0,1.962H73.918a.993.993,0,1,0,0-1.962H68.695v-6.387c7.749-.5,13.876-6.063,13.876-12.83v-3.19A1.072,1.072,0,0,0,81.426,107.3Z" transform="translate(-46.936 -88.514)" fill="#fff"/>
        <path id="Path_2" data-name="Path 2" d="M91.758,0c-4.854,0-8.8,3.384-8.8,7.544V21.789c0,4.16,3.949,7.544,8.8,7.544s8.8-3.384,8.8-7.544V7.544C100.561,3.384,96.612,0,91.758,0Zm0,27.371c-3.592,0-6.514-2.5-6.514-5.582V21.4h1.815a.993.993,0,1,0,0-1.962H85.243v-3.79h2.934a1.073,1.073,0,0,0,1.145-.981,1.073,1.073,0,0,0-1.145-.981H85.243V9.9h1.815A1.073,1.073,0,0,0,88.2,8.915a1.073,1.073,0,0,0-1.145-.981H85.243v-.39c0-3.078,2.922-5.582,6.514-5.582s6.514,2.5,6.514,5.582v.39H96.457a1.073,1.073,0,0,0-1.145.981,1.073,1.073,0,0,0,1.145.981h1.815v3.79H94.778a1.073,1.073,0,0,0-1.145.981,1.073,1.073,0,0,0,1.145.981h3.494v3.79H96.457a.993.993,0,1,0,0,1.962h1.815v.39C98.272,24.867,95.35,27.371,91.758,27.371Z" transform="translate(-71.143)" fill="#fff"/>
        <path id="Path_3" data-name="Path 3" d="M189.484,53.969a1.073,1.073,0,0,1-1.145-.981v-6.7a1.158,1.158,0,0,1,2.289,0v6.7A1.072,1.072,0,0,1,189.484,53.969Z" transform="translate(-154.994 -37.375)" fill="#fff"/>
        <path id="Path_4" data-name="Path 4" d="M53.674,53.969a1.073,1.073,0,0,1-1.145-.981v-6.7a1.158,1.158,0,0,1,2.289,0v6.7A1.072,1.072,0,0,1,53.674,53.969Z" transform="translate(-46.936 -37.375)" fill="#fff"/>
        <path id="Path_5" data-name="Path 5" d="M26.3,60.045a1.073,1.073,0,0,1-1.145-.981V55.709a1.158,1.158,0,0,1,2.289,0v3.355A1.072,1.072,0,0,1,26.3,60.045Z" transform="translate(-25.157 -45.144)" fill="#fff"/>
        <path id="Path_6" data-name="Path 6" d="M216.857,60.3a1.073,1.073,0,0,1-1.145-.981V55.963a1.158,1.158,0,0,1,2.289,0v3.355A1.072,1.072,0,0,1,216.857,60.3Z" transform="translate(-176.773 -45.354)" fill="#fff"/>
      </g>
    </g>
  </g>
</svg>
